<svg xmlns="http://www.w3.org/2000/svg" viewBox="0 0 216 216"><defs><style>.cls-1{fill:#fff;}</style></defs><title>Asset 5</title><g id="Layer_2" data-name="Layer 2"><g id="Layer_1-2" data-name="Layer 1"><circle cx="108" cy="108" r="108"/><path class="cls-1" d="M132.17,132.87V141H84.68v-6.95l25.43-26.37a43,43,0,0,0,6.57-8.21,14.4,14.4,0,0,0,2.44-7.09,8.17,8.17,0,0,0-3.43-6.95q-3.43-2.53-9.43-2.53a24.46,24.46,0,0,0-9.57,2.11,30.84,30.84,0,0,0-9,5.87l-3.85-6.85a43.71,43.71,0,0,1,11.4-6.71A32.84,32.84,0,0,1,107.39,75q9.57,0,15.34,4.41a14.13,14.13,0,0,1,5.77,11.83q0,8.73-12.2,21.4L96.5,132.87Z"/></g></g></svg>