<svg xmlns="http://www.w3.org/2000/svg" viewBox="0 0 216 216"><defs><style>.cls-1{fill:#fff;}</style></defs><title>Asset 6</title><g id="Layer_2" data-name="Layer 2"><g id="Layer_1-2" data-name="Layer 1"><circle cx="108" cy="108" r="108"/><path class="cls-1" d="M126.54,108a15,15,0,0,1,5.82,12.39,18.94,18.94,0,0,1-3.14,10.79,20.77,20.77,0,0,1-8.92,7.32,32.22,32.22,0,0,1-13.47,2.63,43,43,0,0,1-12.44-1.88,38.31,38.31,0,0,1-10.75-5l3.85-7.32a30.74,30.74,0,0,0,18.77,6.48q8.07,0,12.67-3.47a11.06,11.06,0,0,0,4.6-9.29,10,10,0,0,0-4.6-8.87q-4.6-3-13-3H97V103l20.18-19.9H86.84l-.09-8.17H129v5.73l-22.06,21.87,3.94.28Q120.72,103.35,126.54,108Z"/></g></g></svg>