<svg xmlns="http://www.w3.org/2000/svg" viewBox="0 0 216 216"><defs><style>.cls-1{fill:#fff;}</style></defs><title>Asset 8</title><g id="Layer_2" data-name="Layer 2"><g id="Layer_1-2" data-name="Layer 1"><circle cx="108" cy="108" r="108"/><path class="cls-1" d="M120.86,101.95a19.64,19.64,0,0,1,8.45,7,18.07,18.07,0,0,1,3,10.14,21.63,21.63,0,0,1-3.05,11.54,20.22,20.22,0,0,1-8.68,7.7,29.65,29.65,0,0,1-13,2.72,40.85,40.85,0,0,1-12.25-2,44.75,44.75,0,0,1-11.5-5.4l3.66-7.23a32.2,32.2,0,0,0,9.29,4.88,31.38,31.38,0,0,0,9.95,1.69q7.41,0,11.73-3.57a11.88,11.88,0,0,0,4.32-9.67,10.58,10.58,0,0,0-4.32-9q-4.32-3.24-12.29-3.24-2.91,0-8.45.38t-8.92.94v-34h40.83v8.16H97.16V99.79q4.41-.37,11-.38A30.06,30.06,0,0,1,120.86,101.95Z"/></g></g></svg>