<?xml version="1.0" encoding="utf-8"?>
<!-- Generator: Adobe Illustrator 21.1.0, SVG Export Plug-In . SVG Version: 6.00 Build 0)  -->
<!DOCTYPE svg PUBLIC "-//W3C//DTD SVG 1.1//EN" "http://www.w3.org/Graphics/SVG/1.1/DTD/svg11.dtd">
<svg version="1.1" id="Layer_1" xmlns="http://www.w3.org/2000/svg" xmlns:xlink="http://www.w3.org/1999/xlink" x="0px" y="0px"
	 viewBox="0 0 2880 1800" style="enable-background:new 0 0 2880 1800;" xml:space="preserve">
<style type="text/css">
	.st0{fill:#FFF9C7;}
	.st1{fill:#0000FF;stroke:#0000FF;stroke-width:14.0828;stroke-miterlimit:10;}
	.st2{fill:#FFF9C7;stroke:#0000FF;stroke-width:14.0828;stroke-miterlimit:10;}
	.st3{fill:none;stroke:#0000FF;stroke-width:14.0828;stroke-miterlimit:10;}
	.st4{fill:#0000FF;}
</style>
<rect class="st0" width="2880" height="1800"/>
<g>
	<path class="st1" d="M1320.7,313.5c0,0,77,47.4,94.8,130.3l29.6-17.8c0,0-53.3-124.4-112.5-148.1L1320.7,313.5z"/>
	<path class="st2" d="M1412.2,425c0,0,16-84.5,87.4-85.8c53.7-1,89.9-22.5,89.9-22.5c-10.7,33.6-40.4,96.6-89.9,95.5
		C1464,411.5,1412.2,425,1412.2,425z"/>
	<path class="st2" d="M1410.8,420.4c0,0-74.9-57.1-142.6-44.8c-67.7,12.3-104.7,12.3-104.7,12.3s36.9,43.1,98.5,55.4
		C1323.6,455.6,1410.8,420.4,1410.8,420.4z"/>
	<path class="st2" d="M1416.9,412.8c-638.6-54.5-395.3,715,133.9,752.8C2080.1,976.5,2021.7,110.3,1416.9,412.8z"/>
	<path class="st3" d="M1550.8,1165.5c161.8-539.3-90.5-738.8-133.9-752.8"/>
</g>
<g>
	<g>
		<path class="st4" d="M1403.3,442.6c11.7,0,11.7-18.1,0-18.1C1391.7,424.5,1391.7,442.6,1403.3,442.6L1403.3,442.6z"/>
	</g>
</g>
<g>
	<g>
		<path class="st4" d="M1344.9,442.6c11.7,0,11.7-18.1,0-18.1C1333.2,424.5,1333.2,442.6,1344.9,442.6L1344.9,442.6z"/>
	</g>
</g>
<g>
	<g>
		<path class="st4" d="M1381.4,462.1c11.7,0,11.7-18.1,0-18.1C1369.8,444,1369.7,462.1,1381.4,462.1L1381.4,462.1z"/>
	</g>
</g>
<g>
	<g>
		<path class="st4" d="M1413.1,479.2c11.7,0,11.7-18.1,0-18.1C1401.4,461.1,1401.4,479.2,1413.1,479.2L1413.1,479.2z"/>
	</g>
</g>
<g>
	<g>
		<path class="st4" d="M1425.3,457.2c11.7,0,11.7-18.1,0-18.1C1413.6,439.1,1413.6,457.2,1425.3,457.2L1425.3,457.2z"/>
	</g>
</g>
<g>
	<g>
		<path class="st4" d="M1449.6,493.8c11.7,0,11.7-18.1,0-18.1C1438,475.7,1437.9,493.8,1449.6,493.8L1449.6,493.8z"/>
	</g>
</g>
<g>
	<g>
		<path class="st4" d="M1305.9,447.5c11.7,0,11.7-18.1,0-18.1C1294.3,429.4,1294.2,447.5,1305.9,447.5L1305.9,447.5z"/>
	</g>
</g>
<g>
	<g>
		<path class="st4" d="M1369.2,440.2c11.7,0,11.7-18.1,0-18.1C1357.6,422.1,1357.6,440.2,1369.2,440.2L1369.2,440.2z"/>
	</g>
</g>
<g>
	<g>
		<path class="st4" d="M1474,510.8c11.7,0,11.7-18.1,0-18.1C1462.3,492.7,1462.3,510.8,1474,510.8L1474,510.8z"/>
	</g>
</g>
<g>
	<g>
		<path class="st4" d="M1459.4,474.3c11.7,0,11.7-18.1,0-18.1C1447.7,456.2,1447.7,474.3,1459.4,474.3L1459.4,474.3z"/>
	</g>
</g>
<g>
	<g>
		<path class="st4" d="M1491,527.9c11.7,0,11.7-18.1,0-18.1C1479.4,509.8,1479.3,527.9,1491,527.9L1491,527.9z"/>
	</g>
</g>
<g>
	<g>
		<path class="st4" d="M1510.5,549.8c11.7,0,11.7-18.1,0-18.1C1498.8,531.7,1498.8,549.8,1510.5,549.8L1510.5,549.8z"/>
	</g>
</g>
<g>
	<g>
		<path class="st4" d="M1327.8,464c7.8,0,7.8-12.1,0-12.1C1320.1,451.9,1320.1,464,1327.8,464L1327.8,464z"/>
	</g>
</g>
<g>
	<g>
		<path class="st4" d="M1344.9,461.5c7.8,0,7.8-12.1,0-12.1C1337.1,449.5,1337.1,461.5,1344.9,461.5L1344.9,461.5z"/>
	</g>
</g>
<g>
	<g>
		<path class="st4" d="M1352.2,488.3c7.8,0,7.8-12.1,0-12.1C1344.4,476.3,1344.4,488.3,1352.2,488.3L1352.2,488.3z"/>
	</g>
</g>
<g>
	<g>
		<path class="st4" d="M1376.5,488.3c7.8,0,7.8-12.1,0-12.1C1368.8,476.3,1368.8,488.3,1376.5,488.3L1376.5,488.3z"/>
	</g>
</g>
<g>
	<g>
		<path class="st4" d="M1359.5,466.4c7.8,0,7.8-12.1,0-12.1C1351.7,454.3,1351.7,466.4,1359.5,466.4L1359.5,466.4z"/>
	</g>
</g>
<g>
	<g>
		<path class="st4" d="M1393.6,490.8c7.8,0,7.8-12.1,0-12.1C1385.8,478.7,1385.8,490.8,1393.6,490.8L1393.6,490.8z"/>
	</g>
</g>
<g>
	<g>
		<path class="st4" d="M1396,515.1c7.8,0,7.8-12.1,0-12.1C1388.3,503,1388.2,515.1,1396,515.1L1396,515.1z"/>
	</g>
</g>
<g>
	<g>
		<path class="st4" d="M1408.2,502.9c7.8,0,7.8-12.1,0-12.1C1400.4,490.9,1400.4,502.9,1408.2,502.9L1408.2,502.9z"/>
	</g>
</g>
<g>
	<g>
		<path class="st4" d="M1425.3,505.4c7.8,0,7.8-12.1,0-12.1C1417.5,493.3,1417.5,505.4,1425.3,505.4L1425.3,505.4z"/>
	</g>
</g>
<g>
	<g>
		<path class="st4" d="M1425.3,529.7c7.8,0,7.8-12.1,0-12.1C1417.5,517.7,1417.5,529.7,1425.3,529.7L1425.3,529.7z"/>
	</g>
</g>
<g>
	<g>
		<path class="st4" d="M1439.9,527.3c7.8,0,7.8-12.1,0-12.1C1432.1,515.2,1432.1,527.3,1439.9,527.3L1439.9,527.3z"/>
	</g>
</g>
<g>
	<g>
		<path class="st4" d="M1464.2,537c7.8,0,7.8-12.1,0-12.1C1456.5,525,1456.4,537,1464.2,537L1464.2,537z"/>
	</g>
</g>
<g>
	<g>
		<path class="st4" d="M1447.2,515.1c7.8,0,7.8-12.1,0-12.1C1439.4,503,1439.4,515.1,1447.2,515.1L1447.2,515.1z"/>
	</g>
</g>
<g>
	<g>
		<path class="st4" d="M1452,556.5c7.8,0,7.8-12.1,0-12.1C1444.3,544.4,1444.3,556.5,1452,556.5L1452,556.5z"/>
	</g>
</g>
<g>
	<g>
		<path class="st4" d="M1483.7,544.3c7.8,0,7.8-12.1,0-12.1C1475.9,532.3,1475.9,544.3,1483.7,544.3L1483.7,544.3z"/>
	</g>
</g>
<g>
	<g>
		<path class="st4" d="M1276.7,451.8c7.8,0,7.8-12.1,0-12.1C1268.9,439.7,1268.9,451.8,1276.7,451.8L1276.7,451.8z"/>
	</g>
</g>
<g>
	<g>
		<path class="st4" d="M1254.8,456.7c7.8,0,7.8-12.1,0-12.1C1247,444.6,1247,456.7,1254.8,456.7L1254.8,456.7z"/>
	</g>
</g>
<g>
	<g>
		<path class="st4" d="M1308.3,464c7.8,0,7.8-12.1,0-12.1C1300.6,451.9,1300.6,464,1308.3,464L1308.3,464z"/>
	</g>
</g>
<g>
	<g>
		<path class="st4" d="M1288.9,476.1c7.8,0,7.8-12.1,0-12.1C1281.1,464.1,1281.1,476.1,1288.9,476.1L1288.9,476.1z"/>
	</g>
</g>
<g>
	<g>
		<path class="st4" d="M1315.7,480.4c3.9,0,3.9-6,0-6C1311.8,474.4,1311.8,480.4,1315.7,480.4L1315.7,480.4z"/>
	</g>
</g>
<g>
	<g>
		<path class="st4" d="M1327.8,480.4c3.9,0,3.9-6,0-6C1324,474.4,1323.9,480.4,1327.8,480.4L1327.8,480.4z"/>
	</g>
</g>
<g>
	<g>
		<path class="st4" d="M1335.1,497.5c3.9,0,3.9-6,0-6C1331.3,491.4,1331.3,497.5,1335.1,497.5L1335.1,497.5z"/>
	</g>
</g>
<g>
	<g>
		<path class="st4" d="M1315.7,495c3.9,0,3.9-6,0-6C1311.8,489,1311.8,495,1315.7,495L1315.7,495z"/>
	</g>
</g>
<g>
	<g>
		<path class="st4" d="M1354.6,507.2c3.9,0,3.9-6,0-6C1350.7,501.2,1350.7,507.2,1354.6,507.2L1354.6,507.2z"/>
	</g>
</g>
<g>
	<g>
		<path class="st4" d="M1369.2,502.4c3.9,0,3.9-6,0-6C1365.4,496.3,1365.3,502.4,1369.2,502.4L1369.2,502.4z"/>
	</g>
</g>
<g>
	<g>
		<path class="st4" d="M1361.9,495c3.9,0,3.9-6,0-6C1358,489,1358,495,1361.9,495L1361.9,495z"/>
	</g>
</g>
<g>
	<g>
		<path class="st4" d="M1376.5,519.4c3.9,0,3.9-6,0-6C1372.7,513.4,1372.7,519.4,1376.5,519.4L1376.5,519.4z"/>
	</g>
</g>
<g>
	<g>
		<path class="st4" d="M1393.6,536.5c3.9,0,3.9-6,0-6C1389.7,530.4,1389.7,536.5,1393.6,536.5L1393.6,536.5z"/>
	</g>
</g>
<g>
	<g>
		<path class="st4" d="M1520.2,563.2c3.9,0,3.9-6,0-6C1516.4,557.2,1516.3,563.2,1520.2,563.2L1520.2,563.2z"/>
	</g>
</g>
<g>
	<g>
		<path class="st4" d="M1527.5,577.9c3.9,0,3.9-6,0-6C1523.7,571.8,1523.7,577.9,1527.5,577.9L1527.5,577.9z"/>
	</g>
</g>
<g>
	<g>
		<path class="st4" d="M1493.4,560.8c3.9,0,3.9-6,0-6C1489.6,554.8,1489.6,560.8,1493.4,560.8L1493.4,560.8z"/>
	</g>
</g>
<g>
	<g>
		<path class="st4" d="M1476.4,558.4c3.9,0,3.9-6,0-6C1472.5,552.3,1472.5,558.4,1476.4,558.4L1476.4,558.4z"/>
	</g>
</g>
<g>
	<g>
		<path class="st4" d="M1422.8,546.2c3.9,0,3.9-6,0-6C1418.9,540.2,1418.9,546.2,1422.8,546.2L1422.8,546.2z"/>
	</g>
</g>
<g>
	<g>
		<path class="st4" d="M1456.9,420.1c7.8,0,7.8-12.1,0-12.1C1449.1,408.1,1449.1,420.1,1456.9,420.1L1456.9,420.1z"/>
	</g>
</g>
<g>
	<g>
		<path class="st4" d="M1471.5,432.3c7.8,0,7.8-12.1,0-12.1C1463.8,420.2,1463.7,432.3,1471.5,432.3L1471.5,432.3z"/>
	</g>
</g>
<g>
	<g>
		<path class="st4" d="M1476.4,412.8c7.8,0,7.8-12.1,0-12.1C1468.6,400.8,1468.6,412.8,1476.4,412.8L1476.4,412.8z"/>
	</g>
</g>
<g>
	<g>
		<path class="st4" d="M1486.1,429.9c7.8,0,7.8-12.1,0-12.1C1478.4,417.8,1478.4,429.9,1486.1,429.9L1486.1,429.9z"/>
	</g>
</g>
<g>
	<g>
		<path class="st4" d="M1491,412.8c7.8,0,7.8-12.1,0-12.1C1483.2,400.8,1483.2,412.8,1491,412.8L1491,412.8z"/>
	</g>
</g>
<g>
	<g>
		<path class="st4" d="M1505.6,405.5c7.8,0,7.8-12.1,0-12.1C1497.9,393.4,1497.8,405.5,1505.6,405.5L1505.6,405.5z"/>
	</g>
</g>
<g>
	<g>
		<path class="st4" d="M1488.6,444.5c7.8,0,7.8-12.1,0-12.1C1480.8,432.4,1480.8,444.5,1488.6,444.5L1488.6,444.5z"/>
	</g>
</g>
<g>
	<g>
		<path class="st4" d="M1498.3,459.1c7.8,0,7.8-12.1,0-12.1C1490.6,447,1490.5,459.1,1498.3,459.1L1498.3,459.1z"/>
	</g>
</g>
<g>
	<g>
		<path class="st4" d="M1512.9,483.5c7.8,0,7.8-12.1,0-12.1C1505.2,471.4,1505.2,483.5,1512.9,483.5L1512.9,483.5z"/>
	</g>
</g>
<g>
	<g>
		<path class="st4" d="M1508.1,449.4c7.8,0,7.8-12.1,0-12.1C1500.3,437.3,1500.3,449.4,1508.1,449.4L1508.1,449.4z"/>
	</g>
</g>
<g>
	<g>
		<path class="st4" d="M1500.8,427.4c7.8,0,7.8-12.1,0-12.1C1493,415.4,1493,427.4,1500.8,427.4L1500.8,427.4z"/>
	</g>
</g>
<g>
	<g>
		<path class="st4" d="M1517.8,464c7.8,0,7.8-12.1,0-12.1C1510,451.9,1510,464,1517.8,464L1517.8,464z"/>
	</g>
</g>
<g>
	<g>
		<path class="st4" d="M1520.2,417.7c7.8,0,7.8-12.1,0-12.1C1512.5,405.6,1512.5,417.7,1520.2,417.7L1520.2,417.7z"/>
	</g>
</g>
<g>
	<g>
		<path class="st4" d="M1525.1,393.3c7.8,0,7.8-12.1,0-12.1C1517.3,381.3,1517.3,393.3,1525.1,393.3L1525.1,393.3z"/>
	</g>
</g>
<g>
	<g>
		<path class="st4" d="M1525.1,493.2c7.8,0,7.8-12.1,0-12.1C1517.3,481.1,1517.3,493.2,1525.1,493.2L1525.1,493.2z"/>
	</g>
</g>
<g>
	<g>
		<path class="st4" d="M1534.9,515.1c7.8,0,7.8-12.1,0-12.1C1527.1,503,1527.1,515.1,1534.9,515.1L1534.9,515.1z"/>
	</g>
</g>
<g>
	<g>
		<path class="st4" d="M1522.7,437.2c7.8,0,7.8-12.1,0-12.1C1514.9,425.1,1514.9,437.2,1522.7,437.2L1522.7,437.2z"/>
	</g>
</g>
<g>
	<g>
		<path class="st4" d="M1544.6,526.7c3.9,0,3.9-6,0-6C1540.7,520.7,1540.7,526.7,1544.6,526.7L1544.6,526.7z"/>
	</g>
</g>
<g>
	<g>
		<path class="st4" d="M1551.9,541.3c3.9,0,3.9-6,0-6C1548,535.3,1548,541.3,1551.9,541.3L1551.9,541.3z"/>
	</g>
</g>
<g>
	<g>
		<path class="st4" d="M1530,470.7c3.9,0,3.9-6,0-6C1526.1,464.7,1526.1,470.7,1530,470.7L1530,470.7z"/>
	</g>
</g>
<g>
	<g>
		<path class="st4" d="M1537.3,485.3c3.9,0,3.9-6,0-6C1533.4,479.3,1533.4,485.3,1537.3,485.3L1537.3,485.3z"/>
	</g>
</g>
<g>
	<g>
		<path class="st4" d="M1537.3,497.5c3.9,0,3.9-6,0-6C1533.4,491.4,1533.4,497.5,1537.3,497.5L1537.3,497.5z"/>
	</g>
</g>
<g>
	<g>
		<path class="st4" d="M1537.3,448.8c3.9,0,3.9-6,0-6C1533.4,442.7,1533.4,448.8,1537.3,448.8L1537.3,448.8z"/>
	</g>
</g>
<g>
	<g>
		<path class="st4" d="M1527.5,451.2c3.9,0,3.9-6,0-6C1523.7,445.2,1523.7,451.2,1527.5,451.2L1527.5,451.2z"/>
	</g>
</g>
<g>
	<g>
		<path class="st4" d="M1537.3,426.9c3.9,0,3.9-6,0-6C1533.4,420.8,1533.4,426.9,1537.3,426.9L1537.3,426.9z"/>
	</g>
</g>
<g>
	<g>
		<path class="st4" d="M1532.4,409.8c3.9,0,3.9-6,0-6C1528.5,403.8,1528.5,409.8,1532.4,409.8L1532.4,409.8z"/>
	</g>
</g>
<g>
	<g>
		<path class="st4" d="M1544.6,387.9c3.9,0,3.9-6,0-6C1540.7,381.9,1540.7,387.9,1544.6,387.9L1544.6,387.9z"/>
	</g>
</g>
<g>
	<g>
		<path class="st4" d="M1542.2,463.4c3.9,0,3.9-6,0-6C1538.3,457.4,1538.3,463.4,1542.2,463.4L1542.2,463.4z"/>
	</g>
</g>
<g>
	<g>
		<path class="st4" d="M1547,504.8c3.9,0,3.9-6,0-6C1543.1,498.8,1543.1,504.8,1547,504.8L1547,504.8z"/>
	</g>
</g>
<g>
	<g>
		<path class="st4" d="M1595.7,656.4c7.8,0,7.8-12.1,0-12.1C1588,644.3,1588,656.4,1595.7,656.4L1595.7,656.4z"/>
	</g>
</g>
<g>
	<g>
		<path class="st4" d="M1603,680.7c7.8,0,7.8-12.1,0-12.1C1595.3,668.7,1595.3,680.7,1603,680.7L1603,680.7z"/>
	</g>
</g>
<g>
	<g>
		<path class="st4" d="M1610.4,700.2c7.8,0,7.8-12.1,0-12.1C1602.6,688.1,1602.6,700.2,1610.4,700.2L1610.4,700.2z"/>
	</g>
</g>
<g>
	<g>
		<path class="st4" d="M1612.8,727c7.8,0,7.8-12.1,0-12.1C1605,714.9,1605,727,1612.8,727L1612.8,727z"/>
	</g>
</g>
<g>
	<g>
		<path class="st4" d="M1612.8,744.1c7.8,0,7.8-12.1,0-12.1C1605,732,1605,744.1,1612.8,744.1L1612.8,744.1z"/>
	</g>
</g>
<g>
	<g>
		<path class="st4" d="M1615.2,770.8c7.8,0,7.8-12.1,0-12.1C1607.5,758.8,1607.4,770.8,1615.2,770.8L1615.2,770.8z"/>
	</g>
</g>
<g>
	<g>
		<path class="st4" d="M1617.7,790.3c7.8,0,7.8-12.1,0-12.1C1609.9,778.3,1609.9,790.3,1617.7,790.3L1617.7,790.3z"/>
	</g>
</g>
<g>
	<g>
		<path class="st4" d="M1620.1,809.8c7.8,0,7.8-12.1,0-12.1C1612.3,797.7,1612.3,809.8,1620.1,809.8L1620.1,809.8z"/>
	</g>
</g>
<g>
	<g>
		<path class="st4" d="M1588.4,631.4c3.9,0,3.9-6,0-6C1584.6,625.4,1584.5,631.4,1588.4,631.4L1588.4,631.4z"/>
	</g>
</g>
<g>
	<g>
		<path class="st4" d="M1590.9,641.2c3.9,0,3.9-6,0-6C1587,635.1,1587,641.2,1590.9,641.2L1590.9,641.2z"/>
	</g>
</g>
<g>
	<g>
		<path class="st4" d="M1612.8,658.2c3.9,0,3.9-6,0-6C1608.9,652.2,1608.9,658.2,1612.8,658.2L1612.8,658.2z"/>
	</g>
</g>
<g>
	<g>
		<path class="st4" d="M1605.5,660.7c3.9,0,3.9-6,0-6C1601.6,654.6,1601.6,660.7,1605.5,660.7L1605.5,660.7z"/>
	</g>
</g>
<g>
	<g>
		<path class="st4" d="M1603,633.9c3.9,0,3.9-6,0-6C1599.2,627.8,1599.2,633.9,1603,633.9L1603,633.9z"/>
	</g>
</g>
<g>
	<g>
		<path class="st4" d="M1603,646.1c3.9,0,3.9-6,0-6C1599.2,640,1599.2,646.1,1603,646.1L1603,646.1z"/>
	</g>
</g>
<g>
	<g>
		<path class="st4" d="M1617.7,670.4c3.9,0,3.9-6,0-6C1613.8,664.4,1613.8,670.4,1617.7,670.4L1617.7,670.4z"/>
	</g>
</g>
<g>
	<g>
		<path class="st4" d="M1617.7,687.5c3.9,0,3.9-6,0-6C1613.8,681.4,1613.8,687.5,1617.7,687.5L1617.7,687.5z"/>
	</g>
</g>
<g>
	<g>
		<path class="st4" d="M1615.2,677.7c3.9,0,3.9-6,0-6C1611.3,671.7,1611.3,677.7,1615.2,677.7L1615.2,677.7z"/>
	</g>
</g>
<g>
	<g>
		<path class="st4" d="M1620.1,702.1c3.9,0,3.9-6,0-6C1616.2,696,1616.2,702.1,1620.1,702.1L1620.1,702.1z"/>
	</g>
</g>
<g>
	<g>
		<path class="st4" d="M1615.2,709.4c3.9,0,3.9-6,0-6C1611.3,703.3,1611.3,709.4,1615.2,709.4L1615.2,709.4z"/>
	</g>
</g>
<g>
	<g>
		<path class="st4" d="M1622.5,719.1c3.9,0,3.9-6,0-6C1618.6,713.1,1618.6,719.1,1622.5,719.1L1622.5,719.1z"/>
	</g>
</g>
<g>
	<g>
		<path class="st4" d="M1625,733.7c3.9,0,3.9-6,0-6C1621.1,727.7,1621.1,733.7,1625,733.7L1625,733.7z"/>
	</g>
</g>
<g>
	<g>
		<path class="st4" d="M1615.2,755.6c3.9,0,3.9-6,0-6C1611.3,749.6,1611.3,755.6,1615.2,755.6L1615.2,755.6z"/>
	</g>
</g>
<g>
	<g>
		<path class="st4" d="M1637.1,758.1c3.9,0,3.9-6,0-6C1633.3,752,1633.3,758.1,1637.1,758.1L1637.1,758.1z"/>
	</g>
</g>
<g>
	<g>
		<path class="st4" d="M1629.8,748.3c3.9,0,3.9-6,0-6C1626,742.3,1625.9,748.3,1629.8,748.3L1629.8,748.3z"/>
	</g>
</g>
<g>
	<g>
		<path class="st4" d="M1627.4,767.8c3.9,0,3.9-6,0-6C1623.5,761.8,1623.5,767.8,1627.4,767.8L1627.4,767.8z"/>
	</g>
</g>
<g>
	<g>
		<path class="st4" d="M1620.1,826.3c3.9,0,3.9-6,0-6C1616.2,820.2,1616.2,826.3,1620.1,826.3L1620.1,826.3z"/>
	</g>
</g>
<g>
	<g>
		<path class="st4" d="M1629.8,792.2c3.9,0,3.9-6,0-6C1626,786.1,1625.9,792.2,1629.8,792.2L1629.8,792.2z"/>
	</g>
</g>
<g>
	<g>
		<path class="st4" d="M1629.8,782.4c3.9,0,3.9-6,0-6C1626,776.4,1625.9,782.4,1629.8,782.4L1629.8,782.4z"/>
	</g>
</g>
<g>
	<g>
		<path class="st4" d="M1632.3,811.7c3.9,0,3.9-6,0-6C1628.4,805.6,1628.4,811.7,1632.3,811.7L1632.3,811.7z"/>
	</g>
</g>
<g>
	<g>
		<path class="st4" d="M1586,619.3c3.9,0,3.9-6,0-6C1582.1,613.2,1582.1,619.3,1586,619.3L1586,619.3z"/>
	</g>
</g>
<g>
	<g>
		<path class="st4" d="M1617.7,843.3c3.9,0,3.9-6,0-6C1613.8,837.3,1613.8,843.3,1617.7,843.3L1617.7,843.3z"/>
	</g>
</g>
<g>
	<g>
		<path class="st4" d="M1568.9,1147.8c3.9,0,3.9-6,0-6C1565.1,1141.7,1565.1,1147.8,1568.9,1147.8L1568.9,1147.8z"/>
	</g>
</g>
<g>
	<g>
		<path class="st4" d="M1576.3,1140.5c3.9,0,3.9-6,0-6C1572.4,1134.4,1572.4,1140.5,1576.3,1140.5L1576.3,1140.5z"/>
	</g>
</g>
<g>
	<g>
		<path class="st4" d="M1586,1128.3c3.9,0,3.9-6,0-6C1582.1,1122.2,1582.1,1128.3,1586,1128.3L1586,1128.3z"/>
	</g>
</g>
<g>
	<g>
		<path class="st4" d="M1588.4,1113.7c3.9,0,3.9-6,0-6C1584.6,1107.6,1584.5,1113.7,1588.4,1113.7L1588.4,1113.7z"/>
	</g>
</g>
<g>
	<g>
		<path class="st4" d="M1578.7,1130.7c3.9,0,3.9-6,0-6C1574.8,1124.7,1574.8,1130.7,1578.7,1130.7L1578.7,1130.7z"/>
	</g>
</g>
<g>
	<g>
		<path class="st4" d="M1590.9,1091.7c3.9,0,3.9-6,0-6C1587,1085.7,1587,1091.7,1590.9,1091.7L1590.9,1091.7z"/>
	</g>
</g>
<g>
	<g>
		<path class="st4" d="M1583.6,1103.9c3.9,0,3.9-6,0-6C1579.7,1097.9,1579.7,1103.9,1583.6,1103.9L1583.6,1103.9z"/>
	</g>
</g>
<g>
	<g>
		<path class="st4" d="M1581.1,1118.5c3.9,0,3.9-6,0-6C1577.2,1112.5,1577.2,1118.5,1581.1,1118.5L1581.1,1118.5z"/>
	</g>
</g>
<g>
	<g>
		<path class="st4" d="M1600.6,1101.5c3.9,0,3.9-6,0-6C1596.7,1095.5,1596.7,1101.5,1600.6,1101.5L1600.6,1101.5z"/>
	</g>
</g>
<g>
	<g>
		<path class="st4" d="M1593.3,1103.9c3.9,0,3.9-6,0-6C1589.4,1097.9,1589.4,1103.9,1593.3,1103.9L1593.3,1103.9z"/>
	</g>
</g>
<g>
	<g>
		<path class="st4" d="M1598.2,1111.2c3.9,0,3.9-6,0-6C1594.3,1105.2,1594.3,1111.2,1598.2,1111.2L1598.2,1111.2z"/>
	</g>
</g>
<g>
	<g>
		<path class="st4" d="M1593.3,1121c3.9,0,3.9-6,0-6C1589.4,1114.9,1589.4,1121,1593.3,1121L1593.3,1121z"/>
	</g>
</g>
<g>
	<g>
		<path class="st4" d="M1586,1140.5c3.9,0,3.9-6,0-6C1582.1,1134.4,1582.1,1140.5,1586,1140.5L1586,1140.5z"/>
	</g>
</g>
<g>
	<g>
		<path class="st4" d="M1600.6,1128.3c3.9,0,3.9-6,0-6C1596.7,1122.2,1596.7,1128.3,1600.6,1128.3L1600.6,1128.3z"/>
	</g>
</g>
<g>
	<g>
		<path class="st4" d="M1593.3,1135.6c3.9,0,3.9-6,0-6C1589.4,1129.6,1589.4,1135.6,1593.3,1135.6L1593.3,1135.6z"/>
	</g>
</g>
<g>
	<g>
		<path class="st4" d="M1615.2,1123.4c3.9,0,3.9-6,0-6C1611.3,1117.4,1611.3,1123.4,1615.2,1123.4L1615.2,1123.4z"/>
	</g>
</g>
<g>
	<g>
		<path class="st4" d="M1612.8,1116.1c3.9,0,3.9-6,0-6C1608.9,1110.1,1608.9,1116.1,1612.8,1116.1L1612.8,1116.1z"/>
	</g>
</g>
<g>
	<g>
		<path class="st4" d="M1615.2,1103.9c3.9,0,3.9-6,0-6C1611.3,1097.9,1611.3,1103.9,1615.2,1103.9L1615.2,1103.9z"/>
	</g>
</g>
<g>
	<g>
		<path class="st4" d="M1603,1091.7c3.9,0,3.9-6,0-6C1599.2,1085.7,1599.2,1091.7,1603,1091.7L1603,1091.7z"/>
	</g>
</g>
<g>
	<g>
		<path class="st4" d="M1595.7,1072.3c3.9,0,3.9-6,0-6C1591.9,1066.2,1591.9,1072.3,1595.7,1072.3L1595.7,1072.3z"/>
	</g>
</g>
<g>
	<g>
		<path class="st4" d="M1600.6,1084.4c3.9,0,3.9-6,0-6C1596.7,1078.4,1596.7,1084.4,1600.6,1084.4L1600.6,1084.4z"/>
	</g>
</g>
<g>
	<g>
		<path class="st4" d="M1625,1086.9c3.9,0,3.9-6,0-6C1621.1,1080.8,1621.1,1086.9,1625,1086.9L1625,1086.9z"/>
	</g>
</g>
<g>
	<g>
		<path class="st4" d="M1625,1116.1c3.9,0,3.9-6,0-6C1621.1,1110.1,1621.1,1116.1,1625,1116.1L1625,1116.1z"/>
	</g>
</g>
<g>
	<g>
		<path class="st4" d="M1615.2,1091.7c3.9,0,3.9-6,0-6C1611.3,1085.7,1611.3,1091.7,1615.2,1091.7L1615.2,1091.7z"/>
	</g>
</g>
<g>
	<g>
		<path class="st4" d="M1610.4,1079.6c3.9,0,3.9-6,0-6C1606.5,1073.5,1606.5,1079.6,1610.4,1079.6L1610.4,1079.6z"/>
	</g>
</g>
<g>
	<g>
		<path class="st4" d="M1629.8,1103.9c3.9,0,3.9-6,0-6C1626,1097.9,1625.9,1103.9,1629.8,1103.9L1629.8,1103.9z"/>
	</g>
</g>
<g>
	<g>
		<path class="st4" d="M1642,1096.6c3.9,0,3.9-6,0-6C1638.1,1090.6,1638.1,1096.6,1642,1096.6L1642,1096.6z"/>
	</g>
</g>
<g>
	<g>
		<path class="st4" d="M1542.2,1150.2c3.9,0,3.9-6,0-6C1538.3,1144.2,1538.3,1150.2,1542.2,1150.2L1542.2,1150.2z"/>
	</g>
</g>
<g>
	<g>
		<path class="st4" d="M1549.5,1130.7c3.9,0,3.9-6,0-6C1545.6,1124.7,1545.6,1130.7,1549.5,1130.7L1549.5,1130.7z"/>
	</g>
</g>
<g>
	<g>
		<path class="st4" d="M1554.3,1113.7c3.9,0,3.9-6,0-6C1550.5,1107.6,1550.4,1113.7,1554.3,1113.7L1554.3,1113.7z"/>
	</g>
</g>
<g>
	<g>
		<path class="st4" d="M1527.5,1152.6c3.9,0,3.9-6,0-6C1523.7,1146.6,1523.7,1152.6,1527.5,1152.6L1527.5,1152.6z"/>
	</g>
</g>
<g>
	<g>
		<path class="st4" d="M1512.9,1145.3c3.9,0,3.9-6,0-6C1509,1139.3,1509,1145.3,1512.9,1145.3L1512.9,1145.3z"/>
	</g>
</g>
<g>
	<g>
		<path class="st4" d="M1483.7,1142.9c3.9,0,3.9-6,0-6C1479.8,1136.9,1479.8,1142.9,1483.7,1142.9L1483.7,1142.9z"/>
	</g>
</g>
<g>
	<g>
		<path class="st4" d="M1517.8,1138c3.9,0,3.9-6,0-6C1513.9,1132,1513.9,1138,1517.8,1138L1517.8,1138z"/>
	</g>
</g>
<g>
	<g>
		<path class="st4" d="M1532.4,1145.3c3.9,0,3.9-6,0-6C1528.5,1139.3,1528.5,1145.3,1532.4,1145.3L1532.4,1145.3z"/>
	</g>
</g>
<g>
	<g>
		<path class="st4" d="M1537.3,1130.7c3.9,0,3.9-6,0-6C1533.4,1124.7,1533.4,1130.7,1537.3,1130.7L1537.3,1130.7z"/>
	</g>
</g>
<g>
	<g>
		<path class="st4" d="M1072.1,755.6c3.9,0,3.9-6,0-6C1068.2,749.6,1068.2,755.6,1072.1,755.6L1072.1,755.6z"/>
	</g>
</g>
<g>
	<g>
		<path class="st4" d="M1074.5,777.6c3.9,0,3.9-6,0-6C1070.7,771.5,1070.7,777.6,1074.5,777.6L1074.5,777.6z"/>
	</g>
</g>
<g>
	<g>
		<path class="st4" d="M1062.4,765.4c3.9,0,3.9-6,0-6C1058.5,759.4,1058.5,765.4,1062.4,765.4L1062.4,765.4z"/>
	</g>
</g>
<g>
	<g>
		<path class="st4" d="M1057.5,750.8c3.9,0,3.9-6,0-6C1053.6,744.7,1053.6,750.8,1057.5,750.8L1057.5,750.8z"/>
	</g>
</g>
<g>
	<g>
		<path class="st4" d="M1086.7,767.8c3.9,0,3.9-6,0-6C1082.8,761.8,1082.8,767.8,1086.7,767.8L1086.7,767.8z"/>
	</g>
</g>
<g>
	<g>
		<path class="st4" d="M1091.6,789.7c3.9,0,3.9-6,0-6C1087.7,783.7,1087.7,789.7,1091.6,789.7L1091.6,789.7z"/>
	</g>
</g>
<g>
	<g>
		<path class="st4" d="M1084.3,799.5c3.9,0,3.9-6,0-6C1080.4,793.5,1080.4,799.5,1084.3,799.5L1084.3,799.5z"/>
	</g>
</g>
<g>
	<g>
		<path class="st4" d="M1072.1,789.7c3.9,0,3.9-6,0-6C1068.2,783.7,1068.2,789.7,1072.1,789.7L1072.1,789.7z"/>
	</g>
</g>
<g>
	<g>
		<path class="st4" d="M1084.3,823.8c3.9,0,3.9-6,0-6C1080.4,817.8,1080.4,823.8,1084.3,823.8L1084.3,823.8z"/>
	</g>
</g>
<g>
	<g>
		<path class="st4" d="M1091.6,814.1c3.9,0,3.9-6,0-6C1087.7,808.1,1087.7,814.1,1091.6,814.1L1091.6,814.1z"/>
	</g>
</g>
<g>
	<g>
		<path class="st4" d="M1079.4,811.7c3.9,0,3.9-6,0-6C1075.5,805.6,1075.5,811.7,1079.4,811.7L1079.4,811.7z"/>
	</g>
</g>
<g>
	<g>
		<path class="st4" d="M1098.9,838.5c3.9,0,3.9-6,0-6C1095,832.4,1095,838.5,1098.9,838.5L1098.9,838.5z"/>
	</g>
</g>
<g>
	<g>
		<path class="st4" d="M1089.2,845.8c3.9,0,3.9-6,0-6C1085.3,839.7,1085.3,845.8,1089.2,845.8L1089.2,845.8z"/>
	</g>
</g>
<g>
	<g>
		<path class="st4" d="M1103.8,862.8c3.9,0,3.9-6,0-6C1099.9,856.8,1099.9,862.8,1103.8,862.8L1103.8,862.8z"/>
	</g>
</g>
<g>
	<g>
		<path class="st4" d="M1115.9,879.9c3.9,0,3.9-6,0-6C1112.1,873.8,1112.1,879.9,1115.9,879.9L1115.9,879.9z"/>
	</g>
</g>
<g>
	<g>
		<path class="st4" d="M1128.1,909.1c3.9,0,3.9-6,0-6C1124.2,903.1,1124.2,909.1,1128.1,909.1L1128.1,909.1z"/>
	</g>
</g>
<g>
	<g>
		<path class="st4" d="M1883.1,789.7c3.9,0,3.9-6,0-6C1879.2,783.7,1879.2,789.7,1883.1,789.7L1883.1,789.7z"/>
	</g>
</g>
<g>
	<g>
		<path class="st4" d="M1871,789.7c3.9,0,3.9-6,0-6C1867.1,783.7,1867.1,789.7,1871,789.7L1871,789.7z"/>
	</g>
</g>
<g>
	<g>
		<path class="st4" d="M1875.8,804.4c3.9,0,3.9-6,0-6C1871.9,798.3,1871.9,804.4,1875.8,804.4L1875.8,804.4z"/>
	</g>
</g>
<g>
	<g>
		<path class="st4" d="M1868.5,826.3c3.9,0,3.9-6,0-6C1864.6,820.2,1864.6,826.3,1868.5,826.3L1868.5,826.3z"/>
	</g>
</g>
<g>
	<g>
		<path class="st4" d="M1863.6,801.9c3.9,0,3.9-6,0-6C1859.8,795.9,1859.8,801.9,1863.6,801.9L1863.6,801.9z"/>
	</g>
</g>
<g>
	<g>
		<path class="st4" d="M1861.2,814.1c3.9,0,3.9-6,0-6C1857.3,808.1,1857.3,814.1,1861.2,814.1L1861.2,814.1z"/>
	</g>
</g>
<g>
	<g>
		<path class="st4" d="M1866.1,843.3c3.9,0,3.9-6,0-6C1862.2,837.3,1862.2,843.3,1866.1,843.3L1866.1,843.3z"/>
	</g>
</g>
<g>
	<g>
		<path class="st4" d="M1856.3,860.4c3.9,0,3.9-6,0-6C1852.5,854.3,1852.5,860.4,1856.3,860.4L1856.3,860.4z"/>
	</g>
</g>
<g>
	<g>
		<path class="st4" d="M1858.8,836c3.9,0,3.9-6,0-6C1854.9,830,1854.9,836,1858.8,836L1858.8,836z"/>
	</g>
</g>
<g>
	<g>
		<path class="st4" d="M1888,760.5c3.9,0,3.9-6,0-6C1884.1,754.5,1884.1,760.5,1888,760.5L1888,760.5z"/>
	</g>
</g>
<g>
	<g>
		<path class="st4" d="M1888,741c3.9,0,3.9-6,0-6C1884.1,735,1884.1,741,1888,741L1888,741z"/>
	</g>
</g>
<g>
	<g>
		<path class="st4" d="M1885.6,775.1c3.9,0,3.9-6,0-6C1881.7,769.1,1881.7,775.1,1885.6,775.1L1885.6,775.1z"/>
	</g>
</g>
</svg>
