<?xml version="1.0" encoding="utf-8"?>
<!-- Generator: Adobe Illustrator 21.1.0, SVG Export Plug-In . SVG Version: 6.00 Build 0)  -->
<!DOCTYPE svg PUBLIC "-//W3C//DTD SVG 1.1//EN" "http://www.w3.org/Graphics/SVG/1.1/DTD/svg11.dtd">
<svg version="1.1" id="Layer_1" xmlns="http://www.w3.org/2000/svg" xmlns:xlink="http://www.w3.org/1999/xlink" x="0px" y="0px"
	 viewBox="0 0 2880 1800" style="enable-background:new 0 0 2880 1800;" xml:space="preserve">
<style type="text/css">
	.st0{fill:#FFF9C7;}
	.st1{fill:#FFF9C7;stroke:#0000FF;stroke-width:14.0828;stroke-miterlimit:10;}
</style>
<rect class="st0" width="2880" height="1800"/>
<g>
	<path class="st1" d="M1320.7,313.5c0,0,77,47.4,94.8,130.3l29.6-17.8c0,0-53.3-124.4-112.5-148.1L1320.7,313.5z"/>
	<path class="st1" d="M1412.2,425c0,0,16-84.5,87.4-85.8c53.7-1,89.9-22.5,89.9-22.5c-10.7,33.6-40.4,96.6-89.9,95.5
		C1464,411.5,1412.2,425,1412.2,425z"/>
	<path class="st1" d="M1410.8,420.4c0,0-74.9-57.1-142.6-44.8c-67.7,12.3-104.7,12.3-104.7,12.3s36.9,43.1,98.5,55.4
		C1323.6,455.6,1410.8,420.4,1410.8,420.4z"/>
	<path class="st1" d="M1416.9,412.8c-638.6-54.5-395.3,715,133.9,752.8C2080.1,976.5,2021.7,110.3,1416.9,412.8z"/>
	<path class="st1" d="M1550.8,1165.5c161.8-539.3-90.5-738.8-133.9-752.8"/>
</g>
</svg>
